<svg width="1728" height="1221" viewBox="0 0 1728 1221" fill="none" xmlns="http://www.w3.org/2000/svg">
<path d="M759.653 103.454C1349.16 197.222 1690.65 147.785 1864.95 58C1900.11 135.58 1896.54 440.484 1864.95 611.861C1833.35 783.238 1793.85 849.761 1614.5 1026.84C1435.03 1204.02 759.153 1367.74 47.2839 1000.74C-231.599 856.968 -186.79 394.218 -113.803 219.277C-63.9792 96.1035 125.377 2.56482 759.653 103.454Z" fill="black"/>
<path d="M758.653 45.4537C1348.16 139.222 1689.65 89.785 1863.95 0C1899.11 77.5799 1895.54 382.484 1863.95 553.861C1832.35 725.238 1792.85 791.761 1613.5 968.836C1434.03 1146.02 758.153 1309.74 46.2839 942.742C-232.599 798.968 -187.79 336.218 -114.803 161.277C-64.9792 38.1035 124.377 -55.4352 758.653 45.4537Z" fill="url(#paint0_linear_222_925)"/>
<defs>
<linearGradient id="paint0_linear_222_925" x1="930.933" y1="990.39" x2="796.376" y2="-330.414" gradientUnits="userSpaceOnUse">
<stop stop-color="#DC9713"/>
<stop offset="0.26" stop-color="#DB9214"/>
<stop offset="0.55" stop-color="#D68518"/>
<stop offset="0.86" stop-color="#CF6E1F"/>
<stop offset="1" stop-color="#CB6223"/>
</linearGradient>
</defs>
</svg>
